# xmcd
#
# Track frame offsets:
#	150
#	19812
#	36709
#	52602
#	74593
#	93970
#	112748
#	126785
#	143833
#	163741
#	179703
#	196362
#	221786
#
# Disc length: 3660 seconds
#
# Revision: 0
# Processed by: cddbd v1.5.2PL0 Copyright (c) Steve Scherf et al.
# Submitted via: dBpowerAMP V4.0
#
DISCID=c00e4a0d
DTITLE=Rodrigo Zanc - Pendenga
DYEAR=2005
DGENRE=Country
TTITLE0=01 - Viola Enfeitiçada
TTITLE1=02 - Roda
TTITLE2=03 - Lobo - Homem
TTITLE3=04 - Grande Ser
TTITLE4=05 - Caipira Absoluto
TTITLE5=06 - Véio Cemitério
TTITLE6=07 - Rios
TTITLE7=08 - Coração Andante
TTITLE8=09 - Fumaça no Vento
TTITLE9=10 - Homen de Palavras
TTITLE10=11 - É Sempre Assim
TTITLE11=12 - Reflexão
TTITLE12=DATA
EXTD=
EXTT0=
EXTT1=
EXTT2=
EXTT3=
EXTT4=
EXTT5=
EXTT6=
EXTT7=
EXTT8=
EXTT9=
EXTT10=
EXTT11=
EXTT12=
PLAYORDER=
